<?xml version="1.0" encoding="UTF-8" standalone="no"?> <!-- Created with Inkscape (http://www.inkscape.org/) --> <svg xmlns:dc="http://purl.org/dc/elements/1.1/" xmlns:cc="http://creativecommons.org/ns#" xmlns:rdf="http://www.w3.org/1999/02/22-rdf-syntax-ns#" xmlns:svg="http://www.w3.org/2000/svg" xmlns="http://www.w3.org/2000/svg" xmlns:sodipodi="http://sodipodi.sourceforge.net/DTD/sodipodi-0.dtd" xmlns:inkscape="http://www.inkscape.org/namespaces/inkscape" id="svg2" version="1.1" inkscape:version="0.92.2 2405546, 2018-03-11" width="26.827887mm" height="27.656729mm" xml:space="preserve" sodipodi:docname="bckspc.svg"><metadata id="metadata8"><rdf:RDF><cc:Work rdf:about=""><dc:format>image/svg+xml</dc:format><dc:type rdf:resource="http://purl.org/dc/dcmitype/StillImage" /><dc:title></dc:title></cc:Work></rdf:RDF></metadata><defs id="defs6" /><sodipodi:namedview pagecolor="#ffffff" bordercolor="#666666" borderopacity="1" objecttolerance="10" gridtolerance="10" guidetolerance="10" inkscape:pageopacity="0" inkscape:pageshadow="2" inkscape:window-width="1916" inkscape:window-height="1032" id="namedview4" showgrid="false" inkscape:zoom="0.89702926" inkscape:cx="33.547673" inkscape:cy="-118.65919" inkscape:window-x="0" inkscape:window-y="22" inkscape:window-maximized="0" inkscape:current-layer="g10" fit-margin-top="2" fit-margin-left="2" fit-margin-right="2" fit-margin-bottom="2" units="mm" /><g id="g10" inkscape:groupmode="layer" inkscape:label="Backspace_Logo_Colortable" transform="matrix(1.25,0,0,-1.25,-74.12432,934.42506)"><g id="g4654"><g transform="translate(122.6187,671.0342)" id="g76"><path inkscape:connector-curvature="0" id="path78" style="fill:#1d4d99;fill-opacity:1;fill-rule:nonzero;stroke:none" d="m 0,0 -46.895,-0.054 c -0.582,-0.025 -1.908,-0.024 -2.63,0.57 -0.722,0.593 -0.813,0.743 -1.118,1.119 -0.305,0.375 -3.101,4.463 -3.101,4.463 -0.592,1.019 -0.999,1.956 -0.983,2.69 v 0.231 25.383 6.535 0.13 2.442 c 0.856,0.233 1.488,1.01 1.488,1.937 0,1.115 -0.901,2.019 -2.016,2.019 -1.115,0 -2.017,-0.904 -2.017,-2.019 0,-0.925 0.628,-1.698 1.48,-1.935 V 41.067 40.937 34.402 9.019 8.788 c 0.017,-1.153 0.544,-2.385 1.353,-3.494 0.143,-0.222 0.285,-0.442 0.427,-0.662 0.642,-0.984 1.174,-1.665 1.821,-2.644 0.662,-0.999 1.324,-2.008 2.432,-2.597 0.829,-0.44 1.929,-0.451 2.881,-0.457 L 0.01,-1.07 c 0,0 0.87,-0.035 0.87,0.543 C 0.88,0.049 0,0 0,0" /></g><g transform="translate(130.894,725.9258)" id="g80"><path inkscape:connector-curvature="0" id="path82" style="fill:#1d4d99;fill-opacity:1;fill-rule:nonzero;stroke:none" d="m 0,0 c -0.318,-0.872 -1.153,-1.418 -2.037,-1.318 -0.058,0.005 -0.35,0.075 -0.421,0.101 -0.115,0.042 -0.221,0.096 -0.323,0.156 l -14.901,-15.583 -1.76,-1.839 c 0.17,-0.352 0.234,-0.744 0.181,-1.124 -0.048,-0.401 -0.217,-0.789 -0.517,-1.104 -0.744,-0.777 -1.977,-0.805 -2.756,-0.059 -0.779,0.744 -0.803,1.978 -0.06,2.756 0.638,0.668 1.603,0.849 2.366,0.395 l 1.757,1.8 14.884,15.568 C -3.842,0.225 -3.91,0.798 -3.711,1.346 -3.337,2.372 -2.205,2.903 -1.179,2.529 -1.163,2.524 -1.15,2.514 -1.134,2.508 -0.143,2.117 0.367,1.007 0,0 m -7.2,-41.46 c -0.125,-0.119 -0.286,-0.179 -0.446,-0.179 -0.172,0 -0.344,0.068 -0.472,0.203 l -19.847,20.942 -19.848,-20.942 c -0.127,-0.135 -0.299,-0.203 -0.471,-0.203 -0.161,0 -0.321,0.06 -0.447,0.179 -0.261,0.246 -0.271,0.658 -0.024,0.918 l 19.895,20.993 -19.895,20.991 c -0.247,0.26 -0.236,0.671 0.025,0.918 0.259,0.248 0.669,0.238 0.918,-0.025 l 19.847,-20.94 19.846,20.94 C -7.871,2.598 -7.46,2.608 -7.2,2.36 -6.939,2.113 -6.928,1.702 -7.176,1.442 L -27.07,-19.549 -7.175,-40.542 c 0.247,-0.26 0.236,-0.672 -0.025,-0.918 m -44.636,2.539 c 10e-4,-0.01 0.004,-0.021 0.005,-0.033 0.009,-0.111 0.002,-0.225 -0.009,-0.338 -0.002,-0.024 0,-0.048 -0.004,-0.072 -0.017,-0.135 -0.05,-0.27 -0.098,-0.403 -0.374,-1.025 -1.507,-1.556 -2.532,-1.183 -1.024,0.373 -1.552,1.507 -1.18,2.53 0.151,0.412 0.428,0.739 0.768,0.966 0.117,0.077 0.244,0.141 0.375,0.192 0.021,0.008 0.042,0.015 0.063,0.023 0.112,0.039 0.226,0.067 0.343,0.087 0.034,0.005 0.068,0.011 0.103,0.014 0.108,0.013 0.218,0.012 0.328,0.006 0.039,-0.003 0.078,-0.001 0.116,-0.006 0.145,-0.017 0.254,-0.049 0.398,-0.1 0.1,-0.037 0.209,-0.108 0.3,-0.158 l 14.709,15.381 1.748,1.827 c -0.351,0.704 -0.225,1.537 0.35,2.137 0.731,0.764 1.944,0.791 2.709,0.058 0.766,-0.732 0.79,-1.945 0.059,-2.709 -0.624,-0.654 -1.553,-0.805 -2.302,-0.365 l -1.716,-1.795 -14.721,-15.395 c 0.098,-0.209 0.166,-0.431 0.188,-0.664 M -0.771,3.654 c -0.121,0.044 -0.242,0.064 -0.363,0.092 v 1.312 c 0,1.923 -1.56,3.484 -3.484,3.484 h -46.788 c -1.924,0 -3.482,-1.561 -3.482,-3.484 v -41.29 c -0.831,-0.306 -1.531,-0.949 -1.858,-1.846 -0.587,-1.618 0.245,-3.407 1.864,-3.997 0.34,-0.123 0.687,-0.171 1.03,-0.174 0.493,-0.68 3.436,-4.738 3.77,-5.075 0.366,-0.368 1.078,-0.566 1.915,-0.572 h 43.549 c 1.924,0 3.484,1.561 3.484,3.483 v 42.106 c 0.992,0.23 1.852,0.936 2.226,1.965 0.588,1.618 -0.245,3.406 -1.863,3.996" /></g><g transform="translate(69.9736,738.7568)" id="g84"><path inkscape:connector-curvature="0" id="path86" style="fill:#1d4d99;fill-opacity:1;fill-rule:nonzero;stroke:none" d="M 0,0 C 0.366,1.001 1.473,1.522 2.475,1.156 3.478,0.789 3.995,-0.317 3.63,-1.317 3.265,-2.322 2.156,-2.841 1.154,-2.474 0.152,-2.11 -0.364,-1 0,0 m 62.381,-62.361 c -0.922,0 -1.691,-0.623 -1.931,-1.469 l -50.289,-0.053 c -0.582,-0.025 -2.117,0.013 -2.908,0.744 -0.579,0.535 -3.94,5.407 -3.94,5.407 -0.594,1.02 -1,1.957 -0.983,2.694 v 0.229 40.656 6.535 0.13 3.789 c 1.034,0.186 1.947,0.889 2.333,1.948 0.071,0.195 0.121,0.393 0.15,0.59 h 42.634 c 0.66,0.013 1.377,0.227 2.022,0.55 0.333,-0.286 0.762,-0.466 1.237,-0.466 1.054,0 1.906,0.855 1.906,1.908 0,1.051 -0.852,1.905 -1.906,1.905 -1.055,0 -1.909,-0.854 -1.909,-1.905 0,-0.185 0.035,-0.36 0.084,-0.53 -0.496,-0.228 -1.044,-0.392 -1.434,-0.384 L 4.773,-0.078 C 4.561,0.915 3.867,1.782 2.841,2.156 1.255,2.732 -0.492,1.918 -1.067,0.334 -1.644,-1.25 -0.829,-3 0.756,-3.576 0.924,-3.637 1.094,-3.674 1.264,-3.704 v -3.784 -0.13 -6.535 -40.656 -0.229 c 0.016,-1.157 0.544,-2.388 1.353,-3.497 0.142,-0.222 0.284,-0.441 0.427,-0.661 0.642,-0.984 1.175,-1.665 1.821,-2.644 0.662,-1 1.323,-2.006 2.432,-2.597 0.829,-0.439 1.929,-0.452 2.88,-0.458 l 50.262,-0.003 c 0.23,-0.862 1.009,-1.498 1.942,-1.498 1.116,0 2.015,0.902 2.015,2.015 0,1.114 -0.899,2.02 -2.015,2.02" /></g></g> </g></svg>
